<?xml version="1.0" encoding="UTF-8"?>
<svg id="Layer_1" data-name="Layer 1" xmlns="http://www.w3.org/2000/svg" viewBox="0 0 478.04 346.76">
  <defs>
    <style>
      .cls-1 {
        stroke-width: 0px;
      }

      .cls-1, .cls-2 {
        fill: #231f20;
      }

      .cls-2 {
        stroke: #231f20;
        stroke-miterlimit: 10;
        stroke-width: .5px;
      }
    </style>
  </defs>
  <g>
    <path class="cls-2" d="M49.89,346.23c-.11,0-.23-.11-.23-.23v-16.74c0-.11.11-.23.23-.23h7.05c5.25,0,9.26,3.38,9.26,8.6s-3.41,8.6-9.2,8.6h-7.11ZM51.27,330.46v14.33h5.73c5.02,0,7.6-2.81,7.6-7.17s-3.3-7.17-7.65-7.17h-5.68Z"/>
    <path class="cls-2" d="M79.02,346c0,.11-.11.23-.23.23h-1.15c-.11,0-.23-.11-.23-.23v-16.74c0-.11.11-.23.23-.23h1.15c.11,0,.23.11.23.23v16.74Z"/>
    <path class="cls-2" d="M107.77,338.77c0,4.24-2.95,7.74-8.6,7.74-5.07,0-8.94-3.41-8.94-8.89s3.87-8.89,8.94-8.89c5.65,0,8.08,3.7,8.08,6.42,0,.11-.09.17-.26.17h-1.15c-.09,0-.2-.03-.2-.17-.23-2.49-2.18-4.99-6.48-4.99s-7.34,2.81-7.34,7.45,3.15,7.45,7.34,7.45c4.7,0,6.97-2.81,6.97-5.56h-8.31c-.11,0-.26-.14-.26-.26v-.92c0-.11.14-.26.26-.26h9.95v.69Z"/>
    <path class="cls-2" d="M120.59,346c0,.11-.11.23-.23.23h-1.15c-.11,0-.23-.11-.23-.23v-16.74c0-.11.11-.23.23-.23h1.15c.11,0,.23.11.23.23v16.74Z"/>
    <path class="cls-2" d="M131,330.46c-.11,0-.26-.14-.26-.26v-.92c0-.11.14-.26.26-.26h16.23c.11,0,.26.14.26.26v.92c0,.11-.14.26-.26.26h-7.31v15.54c0,.11-.11.23-.23.23h-1.15c-.11,0-.23-.11-.23-.23v-15.54h-7.31Z"/>
    <path class="cls-2" d="M166.32,342.36h-10.64l-1.83,3.61c-.11.23-.17.26-.4.26h-1.09c-.14,0-.29.03-.29-.14,0-.06.06-.17.11-.29l8.49-16.77h.69l8.49,16.77c.06.11.11.23.11.29,0,.14-.14.14-.29.14h-1.12c-.2,0-.29-.03-.4-.26l-1.83-3.61ZM156.4,340.92h9.2l-3.38-6.74c-.57-1.15-1.15-2.75-1.15-2.75h-.11s-.57,1.61-1.15,2.75l-3.41,6.74Z"/>
    <path class="cls-2" d="M181.71,344.79h10.12c.11,0,.26.14.26.26v.92c0,.11-.14.26-.26.26h-11.5c-.11,0-.23-.11-.23-.23v-16.74c0-.11.11-.23.23-.23h1.15c.11,0,.23.11.23.23v15.54Z"/>
    <path class="cls-2" d="M215.77,340.55c.23,0,.29.06.29.32,0,2.89,2.21,4.21,6.13,4.21s5.62-1.75,5.62-3.84c0-1.32-.86-2.67-3.61-2.87l-4.96-.37c-3.35-.26-4.79-1.72-4.79-4.01,0-2.52,2.26-5.25,7.11-5.25s7.11,2.32,7.11,5.36c0,.14-.06.23-.26.23h-1.09c-.17,0-.26-.06-.26-.29,0-2.21-1.66-3.87-5.5-3.87-3.41,0-5.5,1.66-5.5,3.81,0,1.35.92,2.41,3.33,2.58l4.93.37c3.73.29,5.1,2.12,5.1,4.3,0,2.32-1.98,5.27-7.22,5.27-4.93,0-7.74-2.15-7.74-5.42v-.32c0-.14.06-.23.23-.23h1.09Z"/>
    <path class="cls-2" d="M258.11,337.63c0,5.53-4.13,8.89-9.23,8.89s-9.23-3.35-9.23-8.89,4.16-8.89,9.23-8.89,9.23,3.35,9.23,8.89ZM241.25,337.63c0,4.59,3.44,7.45,7.63,7.45s7.63-2.87,7.63-7.45-3.41-7.45-7.63-7.45-7.63,2.84-7.63,7.45Z"/>
    <path class="cls-2" d="M270.93,344.79h10.12c.11,0,.26.14.26.26v.92c0,.11-.14.26-.26.26h-11.5c-.11,0-.23-.11-.23-.23v-16.74c0-.11.11-.23.23-.23h1.15c.11,0,.23.11.23.23v15.54Z"/>
    <path class="cls-2" d="M305.41,329.26c0-.11.11-.23.23-.23h1.15c.11,0,.23.11.23.23v8.97c0,5.53-3.27,8.29-8.31,8.29s-8.31-2.75-8.31-8.29v-8.97c0-.11.11-.23.23-.23h1.15c.11,0,.23.11.23.23v8.97c0,4.7,2.64,6.85,6.71,6.85s6.71-2.15,6.71-6.85v-8.97Z"/>
    <path class="cls-2" d="M317.22,330.46c-.11,0-.26-.14-.26-.26v-.92c0-.11.14-.26.26-.26h16.23c.11,0,.26.14.26.26v.92c0,.11-.14.26-.26.26h-7.31v15.54c0,.11-.11.23-.23.23h-1.15c-.11,0-.23-.11-.23-.23v-15.54h-7.31Z"/>
    <path class="cls-2" d="M345.46,346c0,.11-.11.23-.23.23h-1.15c-.11,0-.23-.11-.23-.23v-16.74c0-.11.11-.23.23-.23h1.15c.11,0,.23.11.23.23v16.74Z"/>
    <path class="cls-2" d="M375.13,337.63c0,5.53-4.13,8.89-9.23,8.89s-9.23-3.35-9.23-8.89,4.16-8.89,9.23-8.89,9.23,3.35,9.23,8.89ZM358.28,337.63c0,4.59,3.44,7.45,7.63,7.45s7.63-2.87,7.63-7.45-3.41-7.45-7.63-7.45-7.63,2.84-7.63,7.45Z"/>
    <path class="cls-2" d="M402,346.23l-11.58-11.93c-.97-1-2.29-2.52-2.41-2.67h-.06v14.36c0,.11-.11.23-.23.23h-1.15c-.11,0-.23-.11-.23-.23v-16.74c0-.11.11-.23.23-.23h.86l11.44,11.81c1.09,1.12,2.55,2.81,2.52,2.78h.09v-14.36c0-.11.11-.23.23-.23h1.15c.11,0,.23.11.23.23v16.74c0,.11-.11.23-.23.23h-.86Z"/>
    <path class="cls-2" d="M415.7,340.55c.23,0,.29.06.29.32,0,2.89,2.21,4.21,6.13,4.21s5.62-1.75,5.62-3.84c0-1.32-.86-2.67-3.61-2.87l-4.96-.37c-3.35-.26-4.79-1.72-4.79-4.01,0-2.52,2.26-5.25,7.11-5.25s7.11,2.32,7.11,5.36c0,.14-.06.23-.26.23h-1.09c-.17,0-.26-.06-.26-.29,0-2.21-1.66-3.87-5.5-3.87-3.41,0-5.5,1.66-5.5,3.81,0,1.35.92,2.41,3.33,2.58l4.93.37c3.73.29,5.1,2.12,5.1,4.3,0,2.32-1.98,5.27-7.22,5.27-4.93,0-7.74-2.15-7.74-5.42v-.32c0-.14.06-.23.23-.23h1.09Z"/>
  </g>
  <g>
    <path class="cls-1" d="M0,305.29v-51.15h45.1c3.89,0,6.94.61,9.13,1.82,2.19,1.22,3.75,2.85,4.67,4.9.93,2.04,1.39,4.31,1.39,6.79,0,1.85-.33,3.64-.98,5.37-.66,1.73-1.67,3.3-3.03,4.71,2.24,1.22,3.99,2.88,5.26,4.98,1.27,2.09,1.91,4.67,1.91,7.74,0,2.88-.58,5.44-1.75,7.67-1.17,2.24-2.97,4-5.41,5.27-2.43,1.27-5.6,1.9-9.5,1.9H0ZM11.55,274.74h29.82c1.37,0,2.6-.08,3.69-.26,1.1-.17,1.99-.67,2.67-1.5.68-.83,1.02-2.22,1.02-4.17s-.34-3.4-1.02-4.23c-.68-.83-1.58-1.33-2.67-1.51-1.09-.17-2.32-.26-3.69-.26H11.55v11.92ZM11.55,296.15h32.89c1.36,0,2.6-.08,3.72-.25,1.12-.17,2.02-.68,2.71-1.54.68-.85,1.02-2.31,1.02-4.35s-.34-3.49-1.02-4.34c-.68-.85-1.59-1.37-2.71-1.54-1.12-.17-2.36-.26-3.72-.26H11.55v12.28Z"/>
    <path class="cls-1" d="M68.25,305.29v-51.15h11.55v51.15h-11.55Z"/>
    <path class="cls-1" d="M115.46,306.01c-6.29,0-11.71-1.03-16.26-3.1-4.56-2.07-8.06-5.06-10.52-8.99-2.46-3.92-3.69-8.66-3.69-14.21,0-8.38,2.81-14.86,8.44-19.44,5.63-4.58,13.7-6.88,24.22-6.88,6.82,0,12.51.87,17.06,2.6,4.55,1.73,8.03,4.13,10.41,7.19,2.39,3.07,3.71,6.68,3.96,10.82h-11.69c-.2-1.07-.61-2.23-1.25-3.47-.63-1.24-1.65-2.42-3.06-3.55-1.41-1.12-3.37-2.04-5.85-2.78-2.48-.73-5.67-1.1-9.57-1.1s-6.82.38-9.36,1.14c-2.54.75-4.58,1.75-6.14,2.99-1.56,1.24-2.74,2.61-3.55,4.1-.8,1.48-1.35,2.97-1.64,4.46-.29,1.48-.44,2.83-.44,4.05s.15,2.65.44,4.17c.29,1.51.84,3.02,1.64,4.53.8,1.51,1.99,2.89,3.55,4.13,1.56,1.24,3.6,2.25,6.14,3.03,2.53.78,5.65,1.17,9.36,1.17s6.58-.36,9.06-1.1c2.48-.73,4.51-1.67,6.07-2.81,1.56-1.15,2.71-2.34,3.44-3.59.73-1.24,1.12-2.35,1.17-3.33h-20.61v-8.11h32.3v27.33h-9.36l-.37-8.26c-2.48,2.68-5.71,4.85-9.68,6.51-3.97,1.65-8.71,2.48-14.21,2.48Z"/>
    <path class="cls-1" d="M190.05,305.29v-51.15h16.23l22.94,37.78,22.95-37.78h16.22v51.15h-11.55v-37.49l-23.24,37.49h-8.7l-23.31-37.49v37.49h-11.55Z"/>
    <path class="cls-1" d="M305.73,306.01c-7.5,0-13.62-1.03-18.34-3.1-4.73-2.07-8.21-5.07-10.45-9.02-2.24-3.95-3.36-8.7-3.36-14.25s1.12-10.29,3.36-14.21c2.24-3.93,5.72-6.91,10.45-8.96,4.73-2.05,10.84-3.07,18.34-3.07s13.62,1.03,18.34,3.1c4.73,2.07,8.21,5.06,10.45,8.96,2.24,3.9,3.36,8.63,3.36,14.18s-1.12,10.29-3.36,14.21c-2.24,3.92-5.73,6.93-10.45,9.03-4.72,2.09-10.84,3.14-18.34,3.14ZM305.73,296.3c7.21,0,12.45-1.3,15.71-3.9,3.26-2.61,4.9-6.86,4.9-12.76s-1.62-10.06-4.86-12.64c-3.24-2.58-8.49-3.87-15.75-3.87s-12.44,1.28-15.71,3.84c-3.27,2.56-4.9,6.78-4.9,12.68s1.63,10.15,4.9,12.76c3.26,2.6,8.5,3.9,15.71,3.9Z"/>
    <path class="cls-1" d="M374.63,306.01c-7.5,0-13.62-1.03-18.34-3.1-4.73-2.07-8.21-5.07-10.45-9.02-2.24-3.95-3.36-8.7-3.36-14.25s1.12-10.29,3.36-14.21c2.24-3.93,5.72-6.91,10.45-8.96,4.73-2.05,10.84-3.07,18.34-3.07s13.62,1.03,18.34,3.1c4.73,2.07,8.21,5.06,10.45,8.96,2.24,3.9,3.36,8.63,3.36,14.18s-1.12,10.29-3.36,14.21c-2.24,3.92-5.73,6.93-10.45,9.03-4.72,2.09-10.84,3.14-18.34,3.14ZM374.63,296.3c7.21,0,12.45-1.3,15.71-3.9,3.26-2.61,4.9-6.86,4.9-12.76s-1.62-10.06-4.86-12.64c-3.24-2.58-8.49-3.87-15.75-3.87s-12.44,1.28-15.71,3.84c-3.27,2.56-4.9,6.78-4.9,12.68s1.63,10.15,4.9,12.76c3.26,2.6,8.5,3.9,15.71,3.9Z"/>
    <path class="cls-1" d="M412.11,305.29v-51.15h16.01l38.37,39.32v-39.32h11.55v51.15h-15.93l-38.45-39.32v39.32h-11.55Z"/>
  </g>
  <path class="cls-1" d="M330.66,88.54v-29.51h-29.51v29.27h-29.17v-29.22h-29.26v-29.09h29.22V10.39c-13.68-6.65-29.05-10.39-45.28-10.39-57.28,0-103.71,46.43-103.71,103.71s46.43,103.71,103.71,103.71c16.24,0,31.6-3.73,45.28-10.39v-20.91h29.38v-29.11h29.28v-29.51h-29.22v-28.98h29.27ZM242.59,59.21v29.09h-29.09v-29.09h29.09ZM184.28,88.43h29.1v29.22h-29.1v-29.22ZM213.5,146.87v-29.06h29.38v-29.41h29v29.41h29.22v28.82h-29.28v29.46h-29.1v-29.22h-29.22Z"/>
</svg>