<svg width="512" height="512" viewBox="0 0 512 512" fill="none" xmlns="http://www.w3.org/2000/svg">
<path d="M256 512C397.4 512 512 397.4 512 256C512 114.6 397.4 0 256 0C114.6 0 0 114.6 0 256C0 397.4 114.6 512 256 512ZM340.4 212.7L260.4 340.7C256.2 347.4 249 351.6 241.1 352C233.2 352.4 225.6 348.8 220.9 342.4L172.9 278.4C164.9 267.8 167.1 252.8 177.7 244.8C188.3 236.8 203.3 239 211.3 249.6L238.3 285.6L299.7 187.3C306.7 176.1 321.5 172.6 332.8 179.7C344.1 186.8 347.5 201.5 340.4 212.8V212.7Z" fill="#065AA1"/>
</svg>
