<svg width="385" height="386" viewBox="0 0 385 386" fill="none" xmlns="http://www.w3.org/2000/svg">
<path d="M55.1008 10.4008C42.6008 -2.09923 22.3008 -2.09923 9.80078 10.4008C-2.69922 22.9008 -2.69922 43.2008 9.80078 55.7008L147.201 193.001L9.90077 330.401C-2.59923 342.901 -2.59923 363.201 9.90077 375.701C22.4008 388.201 42.7008 388.201 55.2008 375.701L192.501 238.301L329.901 375.601C342.401 388.101 362.701 388.101 375.201 375.601C387.701 363.101 387.701 342.801 375.201 330.301L237.801 193.001L375.101 55.6008C387.601 43.1008 387.601 22.8008 375.101 10.3008C362.601 -2.19922 342.301 -2.19922 329.801 10.3008L192.501 147.701L55.1008 10.4008Z" fill="white"/>
</svg>
