<svg width="513" height="512" viewBox="0 0 513 512" fill="none" xmlns="http://www.w3.org/2000/svg">
<path d="M99.3 256.1L168.7 136.2C163.1 124 159.9 110.4 159.9 96C159.9 43 202.9 0 255.9 0C308.9 0 351.9 43 351.9 96C351.9 110.3 348.8 123.9 343.1 136.2L387.5 212.9C364.4 238.9 333.8 258 299.1 266.7L256 191.9L187.9 309.5C209.4 316.3 232.2 320 256 320C326.7 320 389.8 287.3 430.9 236C442 222.2 462.1 220 475.9 231C489.7 242 491.9 262.2 480.9 276C428.2 341.8 347 384 256.1 384C220.7 384 186.7 377.6 155.4 365.9L98.7 463.7C94 471.8 87 478.4 78.6 482.6L23.2 510.3C18.2 512.8 12.3 512.5 7.6 509.6C2.9 506.7 0 501.5 0 496V440.6C0 432.2 2.2 423.9 6.5 416.5L66.5 312.8C53.7 301.6 41.9 289.3 31.2 276C20.1 262.2 22.4 242.1 36.2 231C50 219.9 70.1 222.2 81.2 236C86.9 243.1 93 249.8 99.4 256.1H99.3ZM381.1 407.9C413.6 394.9 443.5 376.9 470 355L505.6 416.5C509.8 423.8 512.1 432.1 512.1 440.6V496C512.1 501.5 509.2 506.7 504.5 509.6C499.8 512.5 493.9 512.8 488.9 510.3L433.5 482.6C425.1 478.4 418.1 471.8 413.4 463.7L381.1 407.9ZM256 128C273.7 128 288 113.7 288 96C288 78.3 273.7 64 256 64C238.3 64 224 78.3 224 96C224 113.7 238.3 128 256 128Z" fill="#065AA1"/>
</svg>
