<svg width="225" height="219" viewBox="0 0 225 219" fill="none" xmlns="http://www.w3.org/2000/svg">
<g clip-path="url(#clip0_123_2)">
<path d="M213.66 93.54V64.03H184.15V93.3H154.98V64.08H125.72V34.99H154.94V15.39C141.26 8.74 125.89 5 109.66 5C52.3802 5 5.9502 51.43 5.9502 108.71C5.9502 165.99 52.3802 212.42 109.66 212.42C125.9 212.42 141.26 208.69 154.94 202.03V181.12H184.32V152.01H213.6V122.5H184.38V93.52H213.65L213.66 93.54ZM125.59 64.21V93.3H96.5002V64.21H125.59ZM67.2802 93.43H96.3802V122.65H67.2802V93.43ZM96.5002 151.87V122.81H125.88V93.4H154.88V122.81H184.1V151.63H154.82V181.09H125.72V151.87H96.5002Z" fill="white"/>
</g>
<defs>
<clipPath id="clip0_123_2">
<rect width="225" height="219" fill="white"/>
</clipPath>
</defs>
</svg>
