<svg width="488" height="488" viewBox="0 0 488 488" fill="none" xmlns="http://www.w3.org/2000/svg">
<path d="M136 288H32.5001C7.60009 288 -7.69991 260.9 5.10009 239.5L58.0001 151.3C66.7001 136.8 82.3001 128 99.2001 128H194.2C270.3 -0.899811 383.8 -7.39983 459.7 3.70017C472.5 5.60017 482.5 15.6002 484.3 28.3002C495.4 104.2 488.9 217.7 360 293.8V388.8C360 405.7 351.2 421.3 336.7 430L248.5 482.9C227.2 495.7 200 480.3 200 455.5V352C200 316.7 171.3 288 136 288ZM408 128C408 101.5 386.5 80.0002 360 80.0002C333.5 80.0002 312 101.5 312 128C312 154.5 333.5 176 360 176C386.5 176 408 154.5 408 128Z" fill="#0977B9"/>
</svg>
